<svg width="1373" height="1010" viewBox="0 0 1373 1010" fill="none" xmlns="http://www.w3.org/2000/svg">
<g clip-path="url(#clip0_135_116)">
<path d="M36.459 61.2721C246.79 -19.5441 403.542 25.7288 463.25 59.942C514.725 89.4376 575.032 111.999 633.577 121.546C692.435 131.143 747.011 127.214 789.043 106.829C837.834 83.1657 973.069 21.987 1101.27 28.4049C1166.43 31.6664 1231.92 52.497 1282.58 106.398C1332.97 160.013 1365.32 242.8 1371.9 363.171C1379.03 493.765 1355.64 594.879 1312.99 671.806C1270.29 748.824 1209.24 799.868 1144.01 831.724C1079.04 863.457 1009.96 876.165 950.154 877.11C891.195 878.041 837.866 867.559 805.386 849.489C668.021 773.069 562.348 730.495 480.889 711.544C399.467 692.601 344.211 697.697 305.854 714.038C229.72 746.474 205.415 829.838 186.757 917.235C179.184 952.708 170.358 976.452 158.115 992.297C144.536 1009.87 122.71 1011.11 109.411 1010.06C94.2848 1008.86 78.1106 1003.93 63.7354 997.531C49.2816 991.1 34.8015 982.37 23.4443 972.194C13.419 963.211 0.00115472 947.894 0.000976562 927.95L0 112.148C0.000146271 90.4272 13.125 70.3253 33.9824 62.2291L36.459 61.2721Z" fill="#1A1A1A"/>
<path d="M77.4975 195.736L50.5094 126.618L66.604 120.334L122.684 151.465L115.081 154.434L97.1146 108.421L116.27 100.941L143.258 170.059L127.164 176.343L71.0837 145.213L78.6866 142.244L96.653 188.257L77.4975 195.736ZM155.088 165.846L132.288 95.2355L152.26 88.7863L175.06 159.397L155.088 165.846ZM222.571 149.743C216.847 151.023 211.337 151.314 206.039 150.617C200.795 149.834 196.002 148.155 191.66 145.578C187.388 142.985 183.742 139.637 180.724 135.533C177.691 131.36 175.557 126.514 174.323 120.997C173.089 115.48 172.963 110.223 173.945 105.224C174.911 100.156 176.775 95.539 179.536 91.3731C182.366 87.1918 185.994 83.6648 190.421 80.792C194.901 77.8348 200.002 75.716 205.726 74.4357C212.416 72.9394 218.643 72.7774 224.409 73.9498C230.243 75.1068 235.413 77.4987 239.917 81.1256L229.521 95.8336C226.559 93.5996 223.503 92.0747 220.351 91.2589C217.269 90.4277 214.004 90.3978 210.555 91.1691C207.59 91.8324 204.974 92.9244 202.707 94.4452C200.441 95.966 198.619 97.8579 197.243 100.121C195.92 102.3 195.026 104.78 194.562 107.563C194.168 110.331 194.317 113.266 195.012 116.37C195.706 119.473 196.821 122.193 198.357 124.528C199.962 126.848 201.835 128.747 203.976 130.223C206.17 131.615 208.616 132.516 211.315 132.926C214.013 133.336 216.845 133.21 219.811 132.547C223.259 131.775 226.2 130.357 228.635 128.292C231.138 126.211 233.254 123.529 234.982 120.246L250.653 129.124C248.108 134.255 244.45 138.621 239.68 142.223C234.963 145.74 229.26 148.246 222.571 149.743ZM289.592 144.589C283.657 144.462 278.202 143.391 273.227 141.377C268.251 139.362 263.928 136.584 260.258 133.042C256.659 129.431 253.885 125.273 251.936 120.566C249.986 115.859 249.071 110.715 249.19 105.134C249.31 99.5525 250.443 94.4522 252.592 89.833C254.74 85.2138 257.688 81.2124 261.436 77.8289C265.256 74.3763 269.694 71.7497 274.751 69.9491C279.808 68.1486 285.303 67.3116 291.238 67.4383C297.243 67.5664 302.698 68.637 307.603 70.6501C312.579 72.6647 316.866 75.4774 320.464 79.0883C324.064 82.6286 326.839 86.7521 328.788 91.4587C330.808 96.1669 331.759 101.312 331.64 106.893C331.521 112.474 330.351 117.609 328.13 122.298C325.982 126.917 323.034 130.918 319.286 134.302C315.538 137.685 311.136 140.277 306.079 142.078C301.093 143.88 295.597 144.717 289.592 144.589ZM289.963 127.209C292.789 127.269 295.413 126.83 297.837 125.892C300.331 124.956 302.48 123.588 304.286 121.789C306.163 119.921 307.625 117.69 308.669 115.097C309.785 112.505 310.377 109.62 310.444 106.441C310.514 103.191 310.046 100.283 309.04 97.7169C308.107 95.0817 306.741 92.8261 304.944 90.95C303.218 89.0047 301.129 87.5112 298.678 86.4693C296.297 85.4289 293.693 84.8786 290.867 84.8183C288.041 84.758 285.381 85.196 282.887 86.1324C280.464 87.0702 278.314 88.4734 276.436 90.3417C274.631 92.141 273.17 94.3363 272.055 96.9278C271.011 99.4501 270.455 102.336 270.386 105.586C270.318 108.765 270.751 111.673 271.684 114.308C272.688 116.945 274.053 119.235 275.778 121.181C277.576 123.057 279.665 124.515 282.046 125.555C284.498 126.597 287.137 127.148 289.963 127.209ZM329.824 144.469L353.772 74.2402L373.637 81.0141L355.06 135.492L388.57 146.918L383.198 162.67L329.824 144.469ZM378.616 160.534L441.132 108.861L459.613 118.118L455.762 199.178L436.239 189.398L441.93 120.76L449.322 124.463L397.76 170.124L378.616 160.534ZM401.089 155.668L412.853 144.252L445.266 160.488L443.169 176.746L401.089 155.668ZM462.15 202.117L493.425 134.83L512.457 143.676L481.183 210.963L462.15 202.117ZM552.516 238.976C546.721 237.144 541.352 234.669 536.409 231.55C531.554 228.385 527.804 225.125 525.16 221.769L536.393 209.089C538.921 212.111 542.027 214.946 545.712 217.593C549.485 220.193 553.426 222.143 557.537 223.443C560.299 224.316 562.597 224.783 564.431 224.844C566.286 224.837 567.712 224.547 568.708 223.972C569.794 223.352 570.518 222.469 570.88 221.323C571.391 219.706 571.054 218.192 569.87 216.78C568.686 215.368 567.01 213.986 564.844 212.634C562.677 211.282 560.241 209.845 557.535 208.323C554.897 206.822 552.278 205.142 549.679 203.283C547.147 201.445 544.936 199.412 543.047 197.185C541.178 194.889 539.886 192.295 539.17 189.4C538.476 186.439 538.725 183.071 539.918 179.298C541.26 175.053 543.619 171.574 546.996 168.862C550.441 166.171 554.818 164.516 560.127 163.897C565.437 163.277 571.562 164.065 578.502 166.258C583.151 167.728 587.529 169.705 591.635 172.188C595.83 174.626 599.36 177.409 602.225 180.538L591.364 193.447C588.57 190.563 585.66 188.161 582.636 186.241C579.632 184.254 576.581 182.771 573.481 181.791C570.718 180.918 568.399 180.519 566.523 180.592C564.668 180.599 563.221 180.957 562.181 181.666C561.142 182.375 560.431 183.336 560.047 184.549C559.557 186.099 559.871 187.569 560.988 188.959C562.193 190.304 563.879 191.652 566.046 193.004C568.301 194.31 570.748 195.713 573.386 197.214C576.092 198.736 578.711 200.416 581.243 202.254C583.863 204.046 586.108 206.089 587.976 208.385C589.866 210.612 591.124 213.196 591.751 216.137C592.467 219.031 592.239 222.331 591.068 226.037C589.769 230.147 587.386 233.582 583.92 236.34C580.543 239.052 576.2 240.718 570.89 241.337C565.648 241.978 559.523 241.191 552.516 238.976ZM634.325 258.742C628.556 257.682 623.37 255.795 618.768 253.081C614.247 250.31 610.493 246.89 607.505 242.82C604.586 238.763 602.541 234.256 601.368 229.298C600.208 224.271 600.139 218.977 601.161 213.417C602.183 207.857 604.123 202.968 606.982 198.752C609.853 194.465 613.374 190.945 617.545 188.191C621.785 185.45 626.503 183.622 631.701 182.709C636.98 181.74 642.504 181.785 648.273 182.845C655.015 184.084 660.81 186.371 665.658 189.704C670.575 193.051 674.397 197.274 677.124 202.374L661.804 211.845C659.952 208.63 657.735 206.031 655.154 204.048C652.642 202.078 649.649 200.773 646.173 200.134C643.185 199.585 640.35 199.567 637.669 200.08C634.988 200.594 632.572 201.622 630.42 203.167C628.35 204.655 626.558 206.588 625.043 208.968C623.597 211.361 622.587 214.121 622.012 217.249C621.437 220.377 621.4 223.316 621.9 226.066C622.47 228.829 623.452 231.309 624.844 233.505C626.319 235.644 628.218 237.43 630.542 238.863C632.865 240.296 635.521 241.287 638.509 241.836C641.985 242.475 645.246 242.32 648.295 241.371C651.413 240.435 654.408 238.794 657.282 236.449L668.234 250.748C663.885 254.475 658.811 257.063 653.012 258.512C647.296 259.904 641.066 259.981 634.325 258.742ZM730.469 188.213L751.449 187.625L753.527 261.796L732.547 262.384L730.469 188.213ZM703.938 263.186L682.959 263.773L680.88 189.602L701.86 189.015L703.938 263.186ZM733.22 233.416L701.645 234.3L701.158 216.923L732.733 216.039L733.22 233.416ZM814.329 247.001C808.696 248.872 803.197 249.692 797.835 249.462C792.472 249.232 787.467 248.064 782.822 245.958C778.221 243.762 774.213 240.774 770.799 236.994C767.384 233.213 764.797 228.674 763.038 223.375C761.279 218.077 760.637 212.892 761.113 207.82C761.588 202.747 763.024 197.989 765.42 193.545C767.861 189.012 771.162 185.049 775.323 181.657C779.483 178.266 784.38 175.634 790.014 173.764C795.715 171.871 801.213 171.051 806.509 171.303C811.872 171.533 816.854 172.746 821.455 174.941C826.033 177.07 830.03 180.024 833.444 183.805C836.926 187.563 839.546 192.092 841.305 197.39C843.064 202.688 843.684 207.918 843.164 213.08C842.688 218.152 841.252 222.91 838.856 227.354C836.46 231.798 833.181 235.716 829.021 239.108C824.927 242.477 820.03 245.108 814.329 247.001ZM808.852 230.503C811.534 229.612 813.86 228.319 815.829 226.623C817.864 224.904 819.431 222.895 820.529 220.595C821.671 218.205 822.3 215.613 822.415 212.82C822.597 210.005 822.187 207.088 821.185 204.07C820.161 200.985 818.745 198.402 816.937 196.322C815.175 194.152 813.132 192.485 810.809 191.32C808.531 190.066 806.063 189.359 803.404 189.199C800.812 189.017 798.174 189.372 795.492 190.263C792.809 191.153 790.45 192.458 788.414 194.176C786.446 195.872 784.89 197.915 783.748 200.305C782.65 202.605 782.01 205.163 781.828 207.978C781.691 210.705 782.134 213.61 783.158 216.695C784.16 219.713 785.543 222.307 787.305 224.477C789.135 226.624 791.189 228.325 793.467 229.579C795.79 230.744 798.247 231.417 800.839 231.599C803.498 231.759 806.169 231.393 808.852 230.503ZM899.516 209.995C889.929 215.291 880.992 216.797 872.706 214.512C864.42 212.226 857.612 206.259 852.281 196.609L832.395 160.609L850.766 150.461L870.345 185.904C873.421 191.472 876.707 194.863 880.205 196.08C883.764 197.262 887.461 196.794 891.296 194.676C895.132 192.557 897.465 189.694 898.298 186.085C899.13 182.477 898.009 177.889 894.933 172.322L875.354 136.878L893.447 126.884L913.334 162.884C918.664 172.534 920.091 181.474 917.614 189.705C915.137 197.935 909.104 204.699 899.516 209.995ZM955.034 152.92L948.852 138.733L977.228 126.369L983.41 140.557L955.034 152.92ZM1043.81 148.117L1054.75 74.7278L1071.84 77.2744L1094.8 131.71L1085.79 130.366L1122.79 84.8671L1139.88 87.4137L1129.15 160.835L1110.07 157.991L1116.47 113.612L1119.72 114.096L1092.07 147.914L1082.84 146.539L1065.62 106.035L1069.61 106.628L1063 150.977L1043.81 148.117ZM1148.18 181.272C1139.71 174.318 1135.02 166.569 1134.08 158.025C1133.14 149.481 1136.17 140.95 1143.17 132.433L1169.28 100.657L1185.5 113.981L1159.79 145.266C1155.75 150.18 1153.82 154.487 1153.98 158.186C1154.19 161.931 1155.99 165.194 1159.38 167.975C1162.76 170.757 1166.29 171.868 1169.95 171.309C1173.61 170.75 1177.46 168.013 1181.49 163.099L1207.2 131.814L1223.17 144.937L1197.06 176.714C1190.06 185.231 1182.28 189.859 1173.72 190.596C1165.15 191.334 1156.64 188.226 1148.18 181.272ZM1176.93 203.561L1239.68 163.964L1250.88 181.714L1202.21 212.43L1221.1 242.371L1207.02 251.252L1176.93 203.561ZM1208.7 261.137L1262.49 240.66L1254.38 219.361L1269.94 213.44L1293.58 275.554L1278.03 281.474L1269.96 260.275L1216.17 280.752L1208.7 261.137ZM1224.62 304.792L1296.83 287.717L1301.66 308.142L1229.45 325.217L1224.62 304.792ZM1230.96 334.592L1304.88 328.151L1306.38 345.364L1258.79 380.368L1257.99 371.286L1310.85 396.685L1312.35 413.898L1238.45 420.55L1236.78 401.331L1281.43 397.228L1281.71 400.501L1242.39 381.477L1241.58 372.184L1276.97 346.012L1277.32 350.025L1232.65 353.917L1230.96 334.592ZM1282.2 451.868L1279.37 486.202L1263.73 484.914L1266.56 450.58L1282.2 451.868ZM1252.92 450.946L1249.73 489.611L1233.57 488.281L1238.46 428.91L1312.41 434.998L1307.63 492.995L1291.47 491.665L1294.54 454.373L1252.92 450.946ZM1232.41 493.799L1304.45 511.57L1296.04 545.635C1294.08 553.593 1290.88 560.228 1286.44 565.538C1282 570.848 1276.69 574.523 1270.51 576.565C1264.31 578.676 1257.51 578.817 1250.1 576.989C1242.76 575.178 1236.8 571.889 1232.22 567.121C1227.7 562.439 1224.71 556.715 1223.25 549.95C1221.79 543.184 1222.04 535.822 1224 527.864L1232.41 493.799ZM1243.64 518.187L1240.47 531.051C1239.45 535.168 1239.33 538.922 1240.09 542.313C1240.91 545.79 1242.58 548.75 1245.11 551.193C1247.7 553.653 1251.06 555.39 1255.17 556.406C1259.36 557.438 1263.14 557.461 1266.51 556.473C1269.89 555.486 1272.71 553.634 1274.98 550.919C1277.3 548.29 1278.97 544.917 1279.99 540.8L1283.16 527.936L1243.64 518.187ZM1212.05 573.516L1280.96 601.029L1273.18 620.52L1204.27 593.007L1212.05 573.516ZM1230.03 641.091L1213.02 671.046L1199.38 663.298L1216.39 633.343L1230.03 641.091ZM1203.86 627.932L1184.7 661.666L1170.6 653.655L1200.02 601.857L1264.54 638.504L1235.8 689.105L1221.7 681.095L1240.18 648.559L1203.86 627.932ZM1187.29 668.476L1199.29 678.243L1179.76 702.253L1167.76 692.487L1187.29 668.476ZM1147.3 680.885L1192.85 739.457L1165.15 760.996C1158.68 766.029 1152.06 769.254 1145.29 770.673C1138.51 772.092 1132.07 771.689 1125.95 769.464C1119.78 767.282 1114.35 763.179 1109.66 757.154C1105.02 751.185 1102.38 744.913 1101.74 738.337C1101.09 731.86 1102.29 725.514 1105.33 719.297C1108.38 713.081 1113.13 707.457 1119.6 702.424L1147.3 680.885ZM1141.01 706.99L1130.55 715.124C1127.21 717.727 1124.78 720.597 1123.28 723.733C1121.77 726.968 1121.25 730.327 1121.72 733.81C1122.24 737.349 1123.79 740.792 1126.4 744.139C1129.04 747.542 1132 749.901 1135.26 751.215C1138.52 752.529 1141.88 752.823 1145.34 752.098C1148.8 751.473 1152.2 749.858 1155.54 747.255L1166 739.121L1141.01 706.99ZM1084.99 776.279L1052.69 788.264L1047.23 773.556L1079.53 761.571L1084.99 776.279ZM1073.42 749.367L1037.04 762.864L1031.4 747.66L1087.25 726.934L1113.07 796.498L1058.51 816.745L1052.87 801.54L1087.95 788.522L1073.42 749.367ZM1003.3 748.864C1009.35 748.244 1015.26 748.385 1021.04 749.285C1026.75 750.263 1031.48 751.767 1035.24 753.797L1029.97 769.895C1026.45 768.124 1022.47 766.755 1018.04 765.789C1013.54 764.899 1009.15 764.674 1004.86 765.113C1001.98 765.409 999.685 765.892 997.978 766.564C996.278 767.307 995.084 768.139 994.398 769.062C993.648 770.062 993.334 771.16 993.456 772.355C993.629 774.042 994.539 775.299 996.186 776.125C997.834 776.95 999.92 777.554 1002.45 777.934C1004.97 778.315 1007.78 778.667 1010.86 778.99C1013.88 779.32 1016.95 779.823 1020.08 780.497C1023.13 781.179 1025.97 782.167 1028.58 783.462C1031.21 784.827 1033.43 786.696 1035.23 789.068C1037.05 791.511 1038.15 794.7 1038.56 798.637C1039.01 803.066 1038.23 807.195 1036.2 811.025C1034.11 814.863 1030.75 818.119 1026.12 820.795C1021.49 823.471 1015.56 825.18 1008.32 825.922C1003.47 826.418 998.665 826.342 993.91 825.692C989.092 825.12 984.748 823.967 980.876 822.232L985.721 806.073C989.43 807.611 993.054 808.66 996.592 809.221C1000.14 809.853 1003.53 810.003 1006.76 809.672C1009.64 809.377 1011.93 808.823 1013.62 808.01C1015.32 807.268 1016.51 806.365 1017.18 805.301C1017.85 804.238 1018.13 803.074 1018 801.808C1017.83 800.191 1016.96 798.966 1015.38 798.133C1013.74 797.378 1011.66 796.81 1009.13 796.429C1006.55 796.126 1003.74 795.809 1000.73 795.479C997.638 795.156 994.568 794.653 991.514 793.971C988.398 793.367 985.527 792.382 982.901 791.018C980.282 789.723 978.101 787.851 976.358 785.401C974.553 783.028 973.452 779.909 973.056 776.043C972.617 771.754 973.44 767.656 975.526 763.749C977.549 759.919 980.874 756.666 985.502 753.99C990.059 751.321 995.993 749.612 1003.3 748.864ZM967.247 753.333L962.804 827.4L941.853 826.143L946.297 752.076L967.247 753.333ZM900.826 741.847C906.57 743.037 911.711 745.04 916.252 747.857C920.778 750.744 924.488 754.255 927.384 758.391C930.211 762.513 932.154 767.065 933.215 772.048C934.261 777.1 934.21 782.394 933.064 787.93C931.917 793.465 929.867 798.309 926.914 802.46C923.946 806.68 920.312 810.113 916.012 812.758C911.711 815.404 906.918 817.117 901.632 817.898C896.263 818.734 890.637 818.543 884.755 817.324C877.905 815.905 872.017 813.494 867.093 810.093C862.169 806.691 858.387 802.479 855.747 797.458L871.276 788.335C873.208 791.55 875.491 794.115 878.125 796.032C880.675 798.004 883.715 799.355 887.244 800.087C890.358 800.732 893.296 800.835 896.057 800.397C898.818 799.959 901.291 798.992 903.477 797.496C905.649 796.07 907.519 794.184 909.088 791.839C910.573 789.548 911.645 786.812 912.304 783.629C912.935 780.584 913.031 777.681 912.593 774.92C912.086 772.145 911.126 769.636 909.714 767.395C908.287 765.223 906.436 763.361 904.16 761.806C901.801 760.307 899.099 759.242 896.054 758.611C893.009 757.981 889.933 757.848 886.826 758.215C883.705 758.651 880.406 759.772 876.928 761.577L868.396 744.762C873.165 742.647 878.447 741.36 884.243 740.901C890.04 740.442 895.567 740.757 900.826 741.847ZM886.001 751.224L880.324 778.626L862.16 774.863L868.396 744.762L886.001 751.224ZM863.023 734.811L836.755 804.205L820.596 798.089L799.817 737.407L807.45 740.296L789.963 786.493L770.731 779.213L796.999 709.818L813.158 715.935L833.937 776.617L826.304 773.728L843.791 727.531L863.023 734.811ZM735.472 679.399C740.963 682.004 745.944 685.189 750.415 688.953C754.792 692.751 758.062 696.493 760.224 700.178L747.365 711.206C745.273 707.867 742.583 704.635 739.295 701.511C735.912 698.419 732.273 695.95 728.379 694.102C725.761 692.86 723.548 692.084 721.74 691.773C719.901 691.527 718.449 691.62 717.384 692.053C716.224 692.519 715.386 693.295 714.871 694.381C714.144 695.913 714.271 697.459 715.251 699.019C716.232 700.58 717.703 702.177 719.665 703.812C721.627 705.447 723.844 707.203 726.317 709.08C728.726 710.927 731.091 712.949 733.412 715.145C735.669 717.311 737.582 719.627 739.15 722.092C740.688 724.62 741.614 727.367 741.928 730.332C742.212 733.36 741.505 736.662 739.809 740.238C737.9 744.26 735.088 747.384 731.373 749.61C727.593 751.806 723.031 752.848 717.687 752.737C712.343 752.626 706.382 751.011 699.806 747.891C695.401 745.8 691.334 743.245 687.605 740.224C683.782 737.237 680.665 733.998 678.253 730.507L690.775 719.201C693.149 722.44 695.704 725.216 698.438 727.53C701.142 729.909 703.963 731.794 706.9 733.188C709.517 734.43 711.761 735.142 713.629 735.325C715.468 735.572 716.95 735.415 718.077 734.854C719.203 734.293 720.039 733.438 720.584 732.289C721.281 730.821 721.171 729.322 720.254 727.792C719.244 726.295 717.757 724.73 715.795 723.095C713.739 721.493 711.507 719.769 709.098 717.922C706.625 716.045 704.26 714.024 702.003 711.857C699.651 709.725 697.707 707.394 696.169 704.866C694.601 702.401 693.707 699.669 693.487 696.671C693.173 693.706 693.849 690.468 695.515 686.956C697.363 683.062 700.192 679.985 704.002 677.725C707.717 675.499 712.247 674.441 717.592 674.552C722.872 674.633 728.832 676.249 735.472 679.399ZM681.031 656.458L658.819 709.558L679.843 718.353L673.421 733.706L612.107 708.057L618.53 692.704L639.457 701.458L661.669 648.359L681.031 656.458ZM600.226 624.107C610.587 627.661 617.701 633.276 621.568 640.952C625.435 648.628 625.58 657.68 622.003 668.108L608.661 707.012L588.808 700.203L601.944 661.901C604.008 655.885 604.316 651.172 602.871 647.763C601.359 644.33 598.53 641.904 594.386 640.482C590.242 639.061 586.553 639.252 583.319 641.057C580.085 642.862 577.437 646.772 575.374 652.788L562.237 691.09L542.685 684.384L556.028 645.48C559.604 635.053 565.274 627.995 573.039 624.308C580.803 620.621 589.865 620.554 600.226 624.107ZM549.59 609.28L532.592 681.507L498.439 673.469C490.46 671.592 483.792 668.462 478.434 664.079C473.077 659.697 469.345 654.426 467.237 648.268C465.06 642.093 464.846 635.291 466.594 627.862C468.326 620.501 471.551 614.509 476.27 609.884C480.903 605.312 486.594 602.259 493.344 600.726C500.093 599.192 507.457 599.365 515.437 601.243L549.59 609.28ZM525.323 620.775L512.426 617.739C508.298 616.768 504.543 616.683 501.161 617.484C497.693 618.338 494.751 620.041 492.335 622.594C489.903 625.216 488.202 628.591 487.23 632.718C486.243 636.914 486.261 640.693 487.285 644.056C488.308 647.419 490.19 650.221 492.929 652.463C495.583 654.757 498.974 656.39 503.101 657.361L515.999 660.396L525.323 620.775ZM435.683 632.608L401.419 629.042L403.042 613.438L437.307 617.004L435.683 632.608ZM437.236 603.355L398.648 599.339L400.327 583.209L459.579 589.375L451.898 663.176L394.017 657.153L395.696 641.022L432.913 644.895L437.236 603.355ZM382.468 583.153L387.4 657.189L353.555 659.443C346.786 659.894 340.896 659.189 335.885 657.327C330.804 655.47 326.785 652.551 323.828 648.569C320.876 644.658 319.213 639.882 318.837 634.241C318.466 628.671 319.484 623.752 321.891 619.483C324.302 615.286 327.903 611.93 332.693 609.415C337.418 606.976 343.164 605.531 349.933 605.08L372.144 603.6L363.422 612.999L361.526 584.548L382.468 583.153ZM336.671 586.203L356.871 611.948L334.555 613.434L314.249 587.697L336.671 586.203ZM363.274 610.778L373.222 619.782L352.281 621.177C347.909 621.468 344.729 622.636 342.74 624.681C340.681 626.73 339.765 629.447 339.99 632.832C340.22 636.287 341.492 638.894 343.804 640.652C346.046 642.415 349.353 643.15 353.725 642.859L374.666 641.464L366 651.709L363.274 610.778ZM291.197 640.848L258.318 651.131L253.635 636.158L286.515 625.875L291.197 640.848ZM281.049 613.369L244.021 624.949L239.18 609.47L296.037 591.689L318.184 662.507L262.643 679.876L257.802 664.398L293.514 653.229L281.049 613.369ZM218.698 620.327L262.096 680.512L248.082 690.617L186.003 674.482L192.623 669.709L221.514 709.775L204.834 721.802L161.436 661.617L175.451 651.512L237.529 667.646L230.909 672.42L202.018 632.354L218.698 620.327ZM142.289 682.033L204.841 721.943L185.97 751.521C181.561 758.432 176.403 763.691 170.496 767.299C164.59 770.907 158.382 772.689 151.873 772.643C145.325 772.657 138.835 770.612 132.401 766.506C126.026 762.439 121.436 757.415 118.63 751.434C115.846 745.55 114.846 739.17 115.629 732.293C116.412 725.416 119.008 718.522 123.417 711.611L142.289 682.033ZM145.119 708.735L137.992 719.905C135.712 723.479 134.391 726.995 134.029 730.453C133.688 734.008 134.324 737.347 135.936 740.471C137.607 743.633 140.229 746.354 143.804 748.634C147.438 750.953 151.011 752.185 154.523 752.33C158.035 752.475 161.301 751.625 164.322 749.78C167.365 748.033 170.026 745.373 172.307 741.798L179.434 730.628L145.119 708.735ZM131.962 797.113L123.13 830.412L107.967 826.39L116.798 793.091L131.962 797.113ZM103.303 791.047L93.3574 828.547L77.6814 824.389L92.9539 766.808L164.674 785.83L149.755 842.079L134.079 837.922L143.672 801.754L103.303 791.047Z" fill="#F9F9F9"/>
</g>
<defs>
<clipPath id="clip0_135_116">
<rect width="1373" height="1010" fill="white"/>
</clipPath>
</defs>
</svg>
