<svg width="1373" height="1010" viewBox="0 0 1373 1010" fill="none" xmlns="http://www.w3.org/2000/svg">
<path d="M77.4965 195.736L50.5084 126.618L66.603 120.334L122.683 151.465L115.08 154.434L97.1136 108.421L116.269 100.941L143.257 170.059L127.163 176.343L71.0827 145.213L78.6857 142.244L96.652 188.257L77.4965 195.736ZM155.087 165.846L132.287 95.2355L152.259 88.7863L175.059 159.397L155.087 165.846ZM222.57 149.743C216.846 151.023 211.336 151.314 206.038 150.617C200.794 149.834 196.001 148.155 191.659 145.578C187.387 142.985 183.741 139.637 180.723 135.533C177.69 131.36 175.556 126.514 174.322 120.997C173.088 115.48 172.962 110.223 173.944 105.224C174.91 100.156 176.774 95.539 179.535 91.3731C182.365 87.1918 185.993 83.6648 190.42 80.792C194.9 77.8348 200.002 75.716 205.725 74.4357C212.415 72.9394 218.642 72.7774 224.408 73.9498C230.242 75.1068 235.412 77.4987 239.916 81.1256L229.52 95.8336C226.558 93.5996 223.502 92.0747 220.35 91.2589C217.268 90.4277 214.003 90.3978 210.555 91.1691C207.589 91.8324 204.973 92.9244 202.706 94.4452C200.44 95.966 198.618 97.8579 197.242 100.121C195.919 102.3 195.025 104.78 194.562 107.563C194.167 110.331 194.316 113.266 195.011 116.37C195.705 119.473 196.82 122.193 198.356 124.528C199.961 126.848 201.834 128.747 203.975 130.223C206.169 131.615 208.615 132.516 211.314 132.926C214.012 133.336 216.844 133.21 219.81 132.547C223.258 131.775 226.199 130.357 228.634 128.292C231.137 126.211 233.253 123.529 234.981 120.246L250.652 129.124C248.107 134.255 244.449 138.621 239.679 142.223C234.962 145.74 229.259 148.246 222.57 149.743ZM289.591 144.589C283.656 144.462 278.201 143.391 273.226 141.377C268.25 139.362 263.927 136.584 260.257 133.042C256.658 129.431 253.884 125.273 251.935 120.566C249.986 115.859 249.07 110.715 249.189 105.134C249.309 99.5525 250.442 94.4522 252.591 89.833C254.739 85.2138 257.687 81.2124 261.435 77.8289C265.255 74.3763 269.693 71.7497 274.75 69.9491C279.807 68.1486 285.302 67.3116 291.237 67.4383C297.242 67.5664 302.697 68.637 307.602 70.6501C312.578 72.6647 316.865 75.4774 320.463 79.0883C324.063 82.6286 326.838 86.7521 328.787 91.4587C330.807 96.1669 331.758 101.312 331.639 106.893C331.52 112.474 330.35 117.609 328.129 122.298C325.981 126.917 323.033 130.918 319.285 134.302C315.538 137.685 311.135 140.277 306.078 142.078C301.092 143.88 295.596 144.717 289.591 144.589ZM289.962 127.209C292.788 127.269 295.412 126.83 297.836 125.892C300.33 124.956 302.479 123.588 304.285 121.789C306.162 119.921 307.624 117.69 308.668 115.097C309.784 112.505 310.376 109.62 310.444 106.441C310.513 103.191 310.045 100.283 309.039 97.7169C308.106 95.0817 306.74 92.8261 304.943 90.95C303.217 89.0047 301.129 87.5112 298.677 86.4693C296.296 85.4289 293.692 84.8786 290.866 84.8183C288.04 84.758 285.38 85.196 282.886 86.1324C280.463 87.0702 278.313 88.4734 276.435 90.3417C274.63 92.141 273.169 94.3363 272.054 96.9278C271.01 99.4501 270.454 102.336 270.385 105.586C270.317 108.765 270.75 111.673 271.683 114.308C272.687 116.945 274.052 119.235 275.777 121.181C277.575 123.057 279.664 124.515 282.045 125.555C284.497 126.597 287.136 127.148 289.962 127.209ZM329.823 144.469L353.771 74.2402L373.636 81.0141L355.059 135.492L388.569 146.918L383.197 162.67L329.823 144.469ZM378.615 160.534L441.131 108.861L459.612 118.118L455.761 199.178L436.238 189.398L441.929 120.76L449.321 124.463L397.759 170.124L378.615 160.534ZM401.088 155.668L412.852 144.252L445.266 160.488L443.168 176.746L401.088 155.668ZM462.149 202.117L493.424 134.83L512.456 143.676L481.182 210.963L462.149 202.117ZM552.515 238.976C546.72 237.144 541.351 234.669 536.408 231.55C531.553 228.385 527.803 225.125 525.159 221.769L536.392 209.089C538.92 212.111 542.026 214.946 545.711 217.593C549.484 220.193 553.425 222.143 557.536 223.443C560.298 224.316 562.596 224.783 564.43 224.844C566.285 224.837 567.711 224.547 568.707 223.972C569.793 223.352 570.517 222.469 570.879 221.323C571.39 219.706 571.053 218.192 569.869 216.78C568.685 215.368 567.009 213.986 564.843 212.634C562.676 211.282 560.24 209.845 557.534 208.323C554.896 206.822 552.277 205.142 549.678 203.283C547.146 201.445 544.935 199.412 543.046 197.185C541.177 194.889 539.885 192.295 539.169 189.4C538.475 186.439 538.724 183.071 539.917 179.298C541.259 175.053 543.618 171.574 546.995 168.862C550.44 166.171 554.817 164.516 560.126 163.897C565.436 163.277 571.561 164.065 578.501 166.258C583.15 167.728 587.528 169.705 591.634 172.188C595.829 174.626 599.359 177.409 602.224 180.538L591.363 193.447C588.569 190.563 585.659 188.161 582.635 186.241C579.631 184.254 576.58 182.771 573.48 181.791C570.717 180.918 568.398 180.519 566.522 180.592C564.667 180.599 563.22 180.957 562.18 181.666C561.141 182.375 560.43 183.336 560.046 184.549C559.556 186.099 559.87 187.569 560.987 188.959C562.192 190.304 563.878 191.652 566.045 193.004C568.3 194.31 570.747 195.713 573.385 197.214C576.091 198.736 578.71 200.416 581.242 202.254C583.862 204.046 586.107 206.089 587.975 208.385C589.865 210.612 591.123 213.196 591.75 216.137C592.466 219.031 592.238 222.331 591.067 226.037C589.768 230.147 587.385 233.582 583.919 236.34C580.542 239.052 576.199 240.718 570.889 241.337C565.647 241.978 559.522 241.191 552.515 238.976ZM634.324 258.742C628.555 257.682 623.369 255.795 618.767 253.081C614.246 250.31 610.492 246.89 607.504 242.82C604.585 238.763 602.54 234.256 601.367 229.298C600.207 224.271 600.138 218.977 601.16 213.417C602.182 207.857 604.122 202.968 606.981 198.752C609.852 194.465 613.373 190.945 617.544 188.191C621.784 185.45 626.502 183.622 631.7 182.709C636.979 181.74 642.503 181.785 648.272 182.845C655.014 184.084 660.809 186.371 665.657 189.704C670.574 193.051 674.396 197.274 677.123 202.374L661.803 211.845C659.951 208.63 657.734 206.031 655.153 204.048C652.641 202.078 649.648 200.773 646.172 200.134C643.184 199.585 640.349 199.567 637.668 200.08C634.987 200.594 632.571 201.622 630.419 203.167C628.349 204.655 626.557 206.588 625.042 208.968C623.596 211.361 622.586 214.121 622.011 217.249C621.436 220.377 621.399 223.316 621.899 226.066C622.469 228.829 623.451 231.309 624.843 233.505C626.318 235.644 628.217 237.43 630.541 238.863C632.864 240.296 635.52 241.287 638.508 241.836C641.984 242.475 645.245 242.32 648.294 241.371C651.412 240.435 654.407 238.794 657.282 236.449L668.233 250.748C663.884 254.475 658.81 257.063 653.011 258.512C647.295 259.904 641.066 259.981 634.324 258.742ZM730.468 188.213L751.448 187.625L753.526 261.796L732.546 262.384L730.468 188.213ZM703.938 263.186L682.958 263.773L680.88 189.602L701.859 189.015L703.938 263.186ZM733.219 233.416L701.644 234.3L701.157 216.923L732.732 216.039L733.219 233.416ZM814.328 247.001C808.695 248.872 803.197 249.692 797.834 249.462C792.471 249.232 787.466 248.064 782.821 245.958C778.22 243.762 774.212 240.774 770.798 236.994C767.383 233.213 764.796 228.674 763.037 223.375C761.278 218.077 760.636 212.892 761.112 207.82C761.587 202.747 763.023 197.989 765.419 193.545C767.86 189.012 771.161 185.049 775.322 181.657C779.482 178.266 784.379 175.634 790.013 173.764C795.714 171.871 801.212 171.051 806.508 171.303C811.871 171.533 816.853 172.746 821.454 174.941C826.032 177.07 830.029 180.024 833.443 183.805C836.925 187.563 839.545 192.092 841.304 197.39C843.063 202.688 843.683 207.918 843.163 213.08C842.687 218.152 841.251 222.91 838.855 227.354C836.459 231.798 833.18 235.716 829.02 239.108C824.926 242.477 820.029 245.108 814.328 247.001ZM808.851 230.503C811.533 229.612 813.859 228.319 815.828 226.623C817.863 224.904 819.43 222.895 820.528 220.595C821.67 218.205 822.299 215.613 822.414 212.82C822.596 210.005 822.186 207.088 821.184 204.07C820.16 200.985 818.744 198.402 816.936 196.322C815.174 194.152 813.131 192.485 810.808 191.32C808.53 190.066 806.062 189.359 803.403 189.199C800.811 189.017 798.173 189.372 795.491 190.263C792.808 191.153 790.449 192.458 788.413 194.176C786.445 195.872 784.889 197.915 783.747 200.305C782.649 202.605 782.009 205.163 781.827 207.978C781.69 210.705 782.133 213.61 783.157 216.695C784.159 219.713 785.542 222.307 787.305 224.477C789.134 226.624 791.188 228.325 793.466 229.579C795.789 230.744 798.246 231.417 800.838 231.599C803.497 231.759 806.168 231.393 808.851 230.503ZM899.516 209.995C889.928 215.291 880.991 216.797 872.705 214.512C864.419 212.226 857.611 206.259 852.281 196.609L832.394 160.609L850.765 150.461L870.344 185.904C873.42 191.472 876.706 194.863 880.204 196.08C883.763 197.262 887.46 196.794 891.295 194.676C895.131 192.557 897.464 189.694 898.297 186.085C899.129 182.477 898.008 177.889 894.932 172.322L875.353 136.878L893.446 126.884L913.333 162.884C918.663 172.534 920.09 181.474 917.613 189.705C915.136 197.935 909.103 204.699 899.516 209.995ZM955.033 152.92L948.851 138.733L977.227 126.369L983.409 140.557L955.033 152.92ZM1043.81 148.117L1054.75 74.7278L1071.84 77.2744L1094.8 131.71L1085.79 130.366L1122.79 84.8671L1139.88 87.4137L1129.15 160.835L1110.07 157.991L1116.47 113.612L1119.72 114.096L1092.07 147.914L1082.84 146.539L1065.62 106.035L1069.61 106.628L1063 150.977L1043.81 148.117ZM1148.18 181.272C1139.71 174.318 1135.01 166.569 1134.08 158.025C1133.14 149.481 1136.17 140.95 1143.17 132.433L1169.28 100.657L1185.5 113.981L1159.79 145.266C1155.75 150.18 1153.81 154.487 1153.98 158.186C1154.19 161.931 1155.99 165.194 1159.38 167.975C1162.76 170.757 1166.29 171.868 1169.95 171.309C1173.61 170.75 1177.46 168.013 1181.49 163.099L1207.2 131.814L1223.17 144.937L1197.06 176.714C1190.06 185.231 1182.28 189.859 1173.72 190.596C1165.15 191.334 1156.64 188.226 1148.18 181.272ZM1176.93 203.561L1239.68 163.964L1250.88 181.714L1202.2 212.43L1221.1 242.371L1207.02 251.252L1176.93 203.561ZM1208.7 261.137L1262.49 240.66L1254.38 219.361L1269.93 213.44L1293.58 275.554L1278.03 281.474L1269.96 260.275L1216.16 280.752L1208.7 261.137ZM1224.62 304.792L1296.83 287.717L1301.66 308.142L1229.45 325.217L1224.62 304.792ZM1230.96 334.592L1304.88 328.151L1306.38 345.364L1258.78 380.368L1257.99 371.286L1310.85 396.685L1312.35 413.898L1238.45 420.55L1236.78 401.331L1281.43 397.228L1281.71 400.501L1242.39 381.477L1241.58 372.184L1276.96 346.012L1277.31 350.025L1232.65 353.917L1230.96 334.592ZM1282.2 451.868L1279.37 486.202L1263.73 484.914L1266.56 450.58L1282.2 451.868ZM1252.92 450.946L1249.73 489.611L1233.57 488.281L1238.46 428.91L1312.41 434.998L1307.63 492.995L1291.47 491.665L1294.54 454.373L1252.92 450.946ZM1232.41 493.799L1304.45 511.57L1296.04 545.635C1294.08 553.593 1290.88 560.228 1286.44 565.538C1282 570.848 1276.69 574.523 1270.51 576.565C1264.31 578.676 1257.51 578.817 1250.1 576.989C1242.75 575.178 1236.8 571.889 1232.22 567.121C1227.7 562.439 1224.71 556.715 1223.25 549.95C1221.79 543.184 1222.04 535.822 1224 527.864L1232.41 493.799ZM1243.64 518.187L1240.47 531.051C1239.45 535.168 1239.33 538.922 1240.09 542.313C1240.91 545.79 1242.58 548.75 1245.11 551.193C1247.7 553.653 1251.06 555.39 1255.17 556.406C1259.36 557.438 1263.14 557.461 1266.51 556.473C1269.88 555.486 1272.71 553.634 1274.98 550.919C1277.3 548.29 1278.97 544.917 1279.99 540.8L1283.16 527.936L1243.64 518.187ZM1212.05 573.516L1280.96 601.029L1273.18 620.52L1204.27 593.007L1212.05 573.516ZM1230.03 641.091L1213.02 671.046L1199.38 663.298L1216.39 633.343L1230.03 641.091ZM1203.86 627.932L1184.7 661.666L1170.6 653.655L1200.02 601.857L1264.54 638.504L1235.8 689.105L1221.7 681.095L1240.18 648.559L1203.86 627.932ZM1187.29 668.476L1199.29 678.243L1179.76 702.253L1167.75 692.487L1187.29 668.476ZM1147.3 680.885L1192.85 739.457L1165.15 760.996C1158.68 766.029 1152.06 769.254 1145.29 770.673C1138.51 772.092 1132.07 771.689 1125.95 769.464C1119.78 767.282 1114.35 763.179 1109.66 757.154C1105.02 751.185 1102.38 744.913 1101.74 738.337C1101.09 731.86 1102.29 725.514 1105.33 719.297C1108.37 713.081 1113.13 707.457 1119.6 702.424L1147.3 680.885ZM1141.01 706.99L1130.55 715.124C1127.21 717.727 1124.78 720.597 1123.28 723.733C1121.77 726.968 1121.25 730.327 1121.72 733.81C1122.23 737.349 1123.79 740.792 1126.4 744.139C1129.04 747.542 1132 749.901 1135.26 751.215C1138.52 752.529 1141.88 752.823 1145.34 752.098C1148.79 751.473 1152.19 749.858 1155.54 747.255L1166 739.121L1141.01 706.99ZM1084.99 776.279L1052.69 788.264L1047.23 773.556L1079.53 761.571L1084.99 776.279ZM1073.42 749.367L1037.04 762.864L1031.4 747.66L1087.25 726.934L1113.07 796.498L1058.51 816.745L1052.87 801.54L1087.95 788.522L1073.42 749.367ZM1003.3 748.864C1009.35 748.244 1015.26 748.385 1021.03 749.285C1026.75 750.263 1031.48 751.767 1035.24 753.797L1029.96 769.895C1026.44 768.124 1022.47 766.755 1018.04 765.789C1013.54 764.899 1009.15 764.674 1004.86 765.113C1001.98 765.409 999.684 765.892 997.977 766.564C996.277 767.307 995.084 768.139 994.397 769.062C993.647 770.062 993.333 771.16 993.455 772.355C993.628 774.042 994.538 775.299 996.185 776.125C997.833 776.95 999.919 777.554 1002.44 777.934C1004.97 778.315 1007.78 778.667 1010.86 778.99C1013.88 779.32 1016.95 779.823 1020.08 780.497C1023.13 781.179 1025.96 782.167 1028.58 783.462C1031.21 784.827 1033.43 786.696 1035.23 789.068C1037.04 791.511 1038.15 794.7 1038.56 798.637C1039.01 803.066 1038.22 807.195 1036.2 811.025C1034.11 814.863 1030.75 818.119 1026.12 820.795C1021.49 823.471 1015.56 825.18 1008.32 825.922C1003.47 826.418 998.664 826.342 993.909 825.692C989.091 825.12 984.747 823.967 980.875 822.232L985.72 806.073C989.429 807.611 993.053 808.66 996.591 809.221C1000.14 809.853 1003.53 810.003 1006.76 809.672C1009.64 809.377 1011.93 808.823 1013.62 808.01C1015.32 807.268 1016.51 806.365 1017.18 805.301C1017.85 804.238 1018.13 803.074 1018 801.808C1017.83 800.191 1016.96 798.966 1015.38 798.133C1013.74 797.378 1011.66 796.81 1009.13 796.429C1006.54 796.126 1003.74 795.809 1000.72 795.479C997.637 795.156 994.567 794.653 991.513 793.971C988.397 793.367 985.526 792.382 982.9 791.018C980.281 789.723 978.1 787.851 976.357 785.401C974.552 783.028 973.451 779.909 973.055 776.043C972.616 771.754 973.439 767.656 975.525 763.749C977.548 759.919 980.873 756.666 985.501 753.99C990.058 751.321 995.992 749.612 1003.3 748.864ZM967.246 753.333L962.803 827.4L941.852 826.143L946.296 752.076L967.246 753.333ZM900.825 741.847C906.569 743.037 911.71 745.04 916.251 747.857C920.777 750.744 924.487 754.255 927.383 758.391C930.21 762.513 932.153 767.065 933.214 772.048C934.26 777.1 934.209 782.394 933.063 787.93C931.916 793.465 929.866 798.309 926.913 802.46C923.945 806.68 920.311 810.113 916.011 812.758C911.71 815.404 906.917 817.117 901.631 817.898C896.262 818.734 890.636 818.543 884.754 817.324C877.904 815.905 872.016 813.494 867.092 810.093C862.168 806.691 858.386 802.479 855.746 797.458L871.275 788.335C873.207 791.55 875.49 794.115 878.124 796.032C880.675 798.004 883.714 799.355 887.243 800.087C890.357 800.732 893.295 800.835 896.056 800.397C898.817 799.959 901.29 798.992 903.476 797.496C905.648 796.07 907.518 794.184 909.087 791.839C910.572 789.548 911.644 786.812 912.303 783.629C912.934 780.584 913.03 777.681 912.592 774.92C912.085 772.145 911.125 769.636 909.713 767.395C908.287 765.223 906.435 763.361 904.159 761.806C901.8 760.307 899.098 759.242 896.053 758.611C893.008 757.981 889.932 757.848 886.825 758.215C883.704 758.651 880.405 759.772 876.927 761.577L868.395 744.762C873.164 742.647 878.446 741.36 884.242 740.901C890.039 740.442 895.566 740.757 900.825 741.847ZM886 751.224L880.323 778.626L862.159 774.863L868.395 744.762L886 751.224ZM863.022 734.811L836.754 804.205L820.595 798.089L799.816 737.407L807.449 740.296L789.962 786.493L770.73 779.213L796.998 709.818L813.157 715.935L833.936 776.617L826.303 773.728L843.79 727.531L863.022 734.811ZM735.471 679.399C740.962 682.004 745.943 685.189 750.414 688.953C754.791 692.751 758.061 696.493 760.223 700.178L747.364 711.206C745.272 707.867 742.582 704.635 739.294 701.511C735.911 698.419 732.272 695.95 728.378 694.102C725.76 692.86 723.547 692.084 721.739 691.773C719.9 691.527 718.448 691.62 717.383 692.053C716.223 692.519 715.385 693.295 714.87 694.381C714.143 695.913 714.27 697.459 715.25 699.019C716.231 700.58 717.702 702.177 719.664 703.812C721.626 705.447 723.843 707.203 726.316 709.08C728.725 710.927 731.09 712.949 733.411 715.145C735.668 717.311 737.581 719.627 739.149 722.092C740.687 724.62 741.613 727.367 741.927 730.332C742.211 733.36 741.504 736.662 739.808 740.238C737.899 744.26 735.087 747.384 731.372 749.61C727.592 751.806 723.03 752.848 717.686 752.737C712.342 752.626 706.381 751.011 699.805 747.891C695.4 745.8 691.333 743.245 687.604 740.224C683.781 737.237 680.664 733.998 678.253 730.507L690.774 719.201C693.148 722.44 695.703 725.216 698.437 727.53C701.141 729.909 703.962 731.794 706.899 733.188C709.517 734.43 711.76 735.142 713.628 735.325C715.467 735.572 716.949 735.415 718.076 734.854C719.202 734.293 720.038 733.438 720.583 732.289C721.28 730.821 721.17 729.322 720.253 727.792C719.243 726.295 717.756 724.73 715.794 723.095C713.738 721.493 711.506 719.769 709.097 717.922C706.624 716.045 704.259 714.024 702.002 711.857C699.65 709.725 697.706 707.394 696.168 704.866C694.6 702.401 693.706 699.669 693.486 696.671C693.172 693.706 693.848 690.468 695.514 686.956C697.362 683.062 700.191 679.985 704.001 677.725C707.716 675.499 712.246 674.441 717.591 674.552C722.871 674.633 728.831 676.249 735.471 679.399ZM681.03 656.458L658.818 709.558L679.842 718.353L673.42 733.706L612.106 708.057L618.529 692.704L639.456 701.458L661.668 648.359L681.03 656.458ZM600.225 624.107C610.586 627.661 617.7 633.276 621.567 640.952C625.434 648.628 625.579 657.68 622.002 668.108L608.66 707.012L588.807 700.203L601.943 661.901C604.007 655.885 604.316 651.172 602.87 647.763C601.358 644.33 598.529 641.904 594.385 640.482C590.241 639.061 586.552 639.252 583.318 641.057C580.084 642.862 577.436 646.772 575.373 652.788L562.236 691.09L542.684 684.384L556.027 645.48C559.603 635.053 565.273 627.995 573.038 624.308C580.802 620.621 589.864 620.554 600.225 624.107ZM549.589 609.28L532.591 681.507L498.438 673.469C490.459 671.592 483.791 668.462 478.433 664.079C473.076 659.697 469.344 654.426 467.236 648.268C465.059 642.093 464.845 635.291 466.593 627.862C468.325 620.501 471.55 614.509 476.269 609.884C480.902 605.312 486.593 602.259 493.343 600.726C500.092 599.192 507.456 599.365 515.436 601.243L549.589 609.28ZM525.322 620.775L512.425 617.739C508.297 616.768 504.542 616.683 501.16 617.484C497.692 618.338 494.75 620.041 492.334 622.594C489.902 625.216 488.201 628.591 487.229 632.718C486.242 636.914 486.26 640.693 487.284 644.056C488.307 647.419 490.189 650.221 492.928 652.463C495.582 654.757 498.973 656.39 503.1 657.361L515.998 660.396L525.322 620.775ZM435.683 632.608L401.418 629.042L403.041 613.438L437.306 617.004L435.683 632.608ZM437.235 603.355L398.647 599.339L400.326 583.209L459.578 589.375L451.897 663.176L394.016 657.153L395.695 641.022L432.912 644.895L437.235 603.355ZM382.467 583.153L387.399 657.189L353.554 659.443C346.785 659.894 340.895 659.189 335.884 657.327C330.803 655.47 326.784 652.551 323.827 648.569C320.875 644.658 319.212 639.882 318.836 634.241C318.465 628.671 319.483 623.752 321.89 619.483C324.301 615.286 327.902 611.93 332.692 609.415C337.417 606.976 343.163 605.531 349.932 605.08L372.143 603.6L363.421 612.999L361.525 584.548L382.467 583.153ZM336.67 586.203L356.87 611.948L334.554 613.434L314.248 587.697L336.67 586.203ZM363.273 610.778L373.221 619.782L352.28 621.177C347.908 621.468 344.728 622.636 342.739 624.681C340.68 626.73 339.764 629.447 339.989 632.832C340.219 636.287 341.491 638.894 343.803 640.652C346.045 642.415 349.352 643.15 353.724 642.859L374.665 641.464L365.999 651.709L363.273 610.778ZM291.196 640.848L258.317 651.131L253.634 636.158L286.514 625.875L291.196 640.848ZM281.048 613.369L244.02 624.949L239.179 609.47L296.036 591.689L318.183 662.507L262.642 679.876L257.801 664.398L293.514 653.229L281.048 613.369ZM218.697 620.327L262.095 680.512L248.081 690.617L186.002 674.482L192.622 669.709L221.513 709.775L204.833 721.802L161.435 661.617L175.45 651.512L237.528 667.646L230.908 672.42L202.017 632.354L218.697 620.327ZM142.288 682.033L204.841 721.943L185.969 751.521C181.56 758.432 176.402 763.691 170.495 767.299C164.589 770.907 158.381 772.689 151.872 772.643C145.324 772.657 138.834 770.612 132.4 766.506C126.025 762.439 121.435 757.415 118.629 751.434C115.845 745.55 114.845 739.17 115.628 732.293C116.411 725.416 119.007 718.522 123.416 711.611L142.288 682.033ZM145.118 708.735L137.991 719.905C135.711 723.479 134.39 726.995 134.028 730.453C133.688 734.008 134.323 737.347 135.935 740.471C137.606 743.633 140.228 746.354 143.803 748.634C147.437 750.953 151.01 752.185 154.522 752.33C158.034 752.475 161.3 751.625 164.321 749.78C167.364 748.033 170.025 745.373 172.306 741.798L179.433 730.628L145.118 708.735ZM131.961 797.113L123.129 830.412L107.966 826.39L116.798 793.091L131.961 797.113ZM103.303 791.047L93.3564 828.547L77.6804 824.389L92.9529 766.808L164.673 785.83L149.754 842.079L134.078 837.922L143.671 801.754L103.303 791.047Z" fill="#F9F9F9"/>
</svg>
