<svg width="116" height="116" viewBox="0 0 116 116" fill="none" xmlns="http://www.w3.org/2000/svg">
<g clip-path="url(#clip0_134_58)">
<path d="M107.011 0.5H8.98924C6.73775 0.5 4.57848 1.3944 2.98644 2.98644C1.3944 4.57848 0.5 6.73775 0.5 8.98924V107.011C0.5 109.262 1.3944 111.422 2.98644 113.014C4.57848 114.606 6.73775 115.5 8.98924 115.5H107.011C109.262 115.5 111.422 114.606 113.014 113.014C114.606 111.422 115.5 109.262 115.5 107.011V8.98924C115.5 6.73775 114.606 4.57848 113.014 2.98644C111.422 1.3944 109.262 0.5 107.011 0.5ZM34.7764 98.4656H17.4865V43.5451H34.7764V98.4656ZM26.1194 35.9344C24.1582 35.9233 22.2442 35.3316 20.6189 34.2338C18.9937 33.1359 17.7301 31.5813 16.9875 29.766C16.245 27.9507 16.0569 25.9562 16.4468 24.0341C16.8368 22.1119 17.7874 20.3484 19.1787 18.966C20.5699 17.5837 22.3395 16.6444 24.2641 16.2668C26.1887 15.8892 28.182 16.0901 29.9925 16.8443C31.803 17.5985 33.3495 18.872 34.4368 20.5043C35.5242 22.1366 36.1036 24.0544 36.1021 26.0156C36.1206 27.3287 35.8745 28.6321 35.3786 29.848C34.8827 31.064 34.147 32.1676 33.2154 33.0932C32.2839 34.0188 31.1755 34.7474 29.9564 35.2355C28.7373 35.7236 27.4324 35.9613 26.1194 35.9344ZM98.5056 98.5135H81.2236V68.5097C81.2236 59.6611 77.4622 56.9299 72.6066 56.9299C67.4795 56.9299 62.4483 60.7951 62.4483 68.7333V98.5135H45.1583V43.5851H61.7854V51.1958H62.009C63.6781 47.8177 69.524 42.0438 78.4444 42.0438C88.0917 42.0438 98.5135 47.7698 98.5135 64.5406L98.5056 98.5135Z" fill="#1A1A1A"/>
</g>
<defs>
<clipPath id="clip0_134_58">
<rect width="115" height="115" fill="white" transform="translate(0.5 0.5)"/>
</clipPath>
</defs>
</svg>
